<svg xmlns="http://www.w3.org/2000/svg" width="102.651" height="21" viewBox="0 0 102.651 21"><path d="M127.1,27.1c-1.534-.9-2.167-1.476-2.167-2.408,0-.784.451-1.2,1.324-1.2.994,0,1.476.51,1.476,1.352v.722h2.618v-.552A3.826,3.826,0,0,0,126.2,20.92a3.891,3.891,0,0,0-4.2,4.032c0,2.019,1.142,3.223,2.859,4.155,1.806,1.12,2.738,1.624,2.738,2.92,0,.932-.54,1.352-1.5,1.352s-1.565-.482-1.565-1.655v-.781h-2.71v.692c0,2.5,1.565,4.2,4.4,4.2a3.962,3.962,0,0,0,4.273-4.094C130.475,29.317,129,28.113,127.1,27.1Z" transform="translate(-87.71 -15.062)" fill="#14191e"/><path d="M160.946,10.38l-3.041.815v2.52H156.13V16.3h1.624v7.28a10.331,10.331,0,0,0,.692,4.424h3.248a9.972,9.972,0,0,1-.75-4.424V16.3h1.926V13.723h-1.926Z" transform="translate(-112.414 -7.474)" fill="#14191e"/><path d="M89.78,20.92a3.364,3.364,0,0,0-3.1,2.587L86.5,21.161H83.76V35.609h3.161V25.5c0-.753.56-1.988,1.534-1.988a1.285,1.285,0,0,1,1.235,1.445V35.609h3.161V24.532C92.852,22.365,91.768,20.92,89.78,20.92Z" transform="translate(-60.307 -15.062)" fill="#14191e"/><path d="M50.315,20.92c-2.649,0-4.455,1.806-4.455,4.665v5.628c0,2.89,1.806,4.637,4.455,4.637s4.424-1.747,4.424-4.637V25.585C54.739,22.726,52.933,20.92,50.315,20.92ZM51.67,31.815a1.347,1.347,0,0,1-1.355,1.476,1.315,1.315,0,0,1-1.355-1.476V24.983a1.338,1.338,0,0,1,1.355-1.5,1.371,1.371,0,0,1,1.355,1.5Z" transform="translate(-33.019 -15.062)" fill="#14191e"/><path d="M188.881,23.719l-.21-2.467H186V35.7h3.161V26.22c0-1.3.871-2.167,3.36-1.806V21.132C190.76,20.771,189.452,21.552,188.881,23.719Z" transform="translate(-133.92 -15.154)" fill="#14191e"/><path d="M5.779.17C2.2.17,0,2.578,0,5.678v9.934c0,3.1,2.2,5.51,5.779,5.51s5.421-2.24,5.421-5.239V13.445H7.857v2.408a1.828,1.828,0,0,1-2.016,1.985,1.837,1.837,0,0,1-2.047-1.926V5.378A1.833,1.833,0,0,1,5.841,3.452,1.827,1.827,0,0,1,7.857,5.437V7.845H11.2V5.409C11.2,2.4,9.332.17,5.779.17Z" transform="translate(0 -0.122)" fill="#14191e"/><path d="M293.416,10.38l-3.024.815v2.52H288.6V16.3h1.627v7.28a10.288,10.288,0,0,0,.692,4.424h3.251a9.97,9.97,0,0,1-.753-4.424V16.3h1.926V13.723h-1.926Z" transform="translate(-207.792 -7.474)" fill="#14191e"/><path d="M220.75,31.922c0,.781-.56,1.985-1.506,1.985a1.275,1.275,0,0,1-1.232-1.445V21.78H214.82V32.888c0,2.136,1.084,3.581,3.1,3.581a3.389,3.389,0,0,0,3.161-2.408l.151,2.167h2.68V21.78H220.75Z" transform="translate(-154.67 -15.682)" fill="#14191e"/><path d="M258.027,20.92c-2.621,0-4.427,1.806-4.427,4.665v5.628c0,2.89,1.806,4.637,4.427,4.637s4.183-1.716,4.183-4.606V30.28h-2.68v1.445c0,.932-.482,1.565-1.4,1.565s-1.445-.6-1.445-1.624V25.142c0-1.025.512-1.655,1.445-1.655s1.4.63,1.4,1.593V26.5h2.68v-.944C262.21,22.7,260.676,20.92,258.027,20.92Z" transform="translate(-182.592 -15.062)" fill="#14191e"/><rect width="2.509" height="11.687" transform="translate(90.958)" fill="#E4E428"/><path d="M339.66,0V2.142h2.528v9.545H344.7V2.142h2.509V0Z" transform="translate(-244.555)" fill="#E4E428"/></svg>