<svg xmlns="http://www.w3.org/2000/svg" width="117.317" height="53.704" viewBox="0 0 117.317 53.704"><path d="M5.579,253.409a3.963,3.963,0,0,1,2.511.864,4.655,4.655,0,0,1,1.477,3.057h.341l-.1-4.125H9.454a3.952,3.952,0,0,1-.42,1.409A4.373,4.373,0,0,0,7.557,253.5a4.889,4.889,0,0,0-2.216-.5,5.428,5.428,0,0,0-2.716.693,4.736,4.736,0,0,0-1.932,2.114A6.836,6.836,0,0,0,0,258.852a5.346,5.346,0,0,0,1.5,3.954,5.223,5.223,0,0,0,3.864,1.5,4.689,4.689,0,0,0,3.67-1.625,3.03,3.03,0,0,1,.523,1.148H9.9v-3.818H9.557a5.366,5.366,0,0,1-.636,1.966,3.085,3.085,0,0,1-1.455,1.443,4.221,4.221,0,0,1-1.8.42,3.42,3.42,0,0,1-2.739-1.307,5.669,5.669,0,0,1-1.1-3.761A6.718,6.718,0,0,1,2.841,254.8a3.238,3.238,0,0,1,2.739-1.386Z" transform="translate(0 -224.25)"/><path d="M140.359,254.411a6.161,6.161,0,0,0-4.25-1.511,6.082,6.082,0,0,0-4.216,1.523,5.2,5.2,0,0,0-1.693,4.045,5.469,5.469,0,0,0,1.659,4.159,6.636,6.636,0,0,0,8.568,0,5.418,5.418,0,0,0,1.636-4.1A5.161,5.161,0,0,0,140.359,254.411Zm-1.2,8.068a3.56,3.56,0,0,1-2.909,1.318,3.8,3.8,0,0,1-3.148-1.318,7.895,7.895,0,0,1,0-7.852,3.618,3.618,0,0,1,3.023-1.318,3.663,3.663,0,0,1,3.057,1.352,6.219,6.219,0,0,1,1.057,3.9,6.156,6.156,0,0,1-1.08,3.92Z" transform="translate(-115.405 -224.162)"/><path d="M270.657,254.7l-.057,2.625h.375a4.254,4.254,0,0,1,.489-1.545,1.277,1.277,0,0,1,.682-.6,6.241,6.241,0,0,1,1.409-.1h1.614v7.693a10.717,10.717,0,0,1-.079,1.739.8.8,0,0,1-.341.545,1.918,1.918,0,0,1-.966.182h-.568v.375h5.432v-.375h-.534a1.868,1.868,0,0,1-1-.193.854.854,0,0,1-.33-.591,13.573,13.573,0,0,1-.057-1.682v-7.693h1.75a4.7,4.7,0,0,1,1.261.114,1.327,1.327,0,0,1,.693.591,4.183,4.183,0,0,1,.511,1.557h.341l-.057-2.625H270.657Z" transform="translate(-239.85 -225.757)"/><path d="M412.6,261.236a3.016,3.016,0,0,0-.386-1.557,2.857,2.857,0,0,0-1.023-1.057,21.305,21.305,0,0,0-2.045-1.011,7.971,7.971,0,0,1-2.034-1.193A1.694,1.694,0,0,1,407,254a1.783,1.783,0,0,1,1.432-.523,2.554,2.554,0,0,1,1.8.716,3.768,3.768,0,0,1,1.08,1.966h.352V253.3h-.352a1.718,1.718,0,0,1-.42.955,3.367,3.367,0,0,0-1.25-.932,3.8,3.8,0,0,0-1.307-.227,2.841,2.841,0,0,0-2.045.773,2.6,2.6,0,0,0-.807,1.943,3.014,3.014,0,0,0,1.42,2.545,14.276,14.276,0,0,0,1.977.989,6.877,6.877,0,0,1,2.023,1.17,1.859,1.859,0,0,1,.557,1.375,2.055,2.055,0,0,1-.636,1.466,2.376,2.376,0,0,1-1.784.659c-1.7,0-2.784-1.136-3.239-3.42h-.4v3.5h.4a2.7,2.7,0,0,1,.4-1.057,3.787,3.787,0,0,0,2.989,1.375,3.5,3.5,0,0,0,2.489-.875,3.144,3.144,0,0,0,.932-2.307Z" transform="translate(-359.332 -224.339)"/><path d="M516.879,254.9c.75,0,1.136.352,1.136,1.057a7.879,7.879,0,0,1-.33,1.534l-1.67,5.784-3.193-8.75h-.455l-2.841,8.75-1.943-6.352a6.761,6.761,0,0,1-.341-1.364.579.579,0,0,1,.2-.466,1.9,1.9,0,0,1,.943-.216V254.5H504.3v.375a1.539,1.539,0,0,1,.841.2,1.228,1.228,0,0,1,.409.568c.1.25.273.773.511,1.534l2.625,8.489h.386l2.9-8.989,3.318,8.989h.364l2.4-8.2a8.923,8.923,0,0,1,.807-2.1,1.264,1.264,0,0,1,.977-.489V254.5h-2.977v.4Z" transform="translate(-446.994 -225.58)"/><path d="M682.759,254.411a6.16,6.16,0,0,0-4.25-1.511,6.082,6.082,0,0,0-4.216,1.523,5.2,5.2,0,0,0-1.693,4.045,5.468,5.468,0,0,0,1.659,4.159,6.636,6.636,0,0,0,8.568,0,5.418,5.418,0,0,0,1.636-4.1A5.234,5.234,0,0,0,682.759,254.411Zm-1.2,8.068a3.56,3.56,0,0,1-2.909,1.318,3.8,3.8,0,0,1-3.148-1.318,7.895,7.895,0,0,1,0-7.852,3.618,3.618,0,0,1,3.023-1.318,3.663,3.663,0,0,1,3.057,1.352,7.686,7.686,0,0,1-.023,7.818Z" transform="translate(-596.169 -224.162)"/><path d="M825.571,264.279a2.1,2.1,0,0,1-.921.773,4.768,4.768,0,0,1-1.489.182h-.829a2.826,2.826,0,0,1-1.227-.171.691.691,0,0,1-.352-.466,9.146,9.146,0,0,1-.068-1.477v-5.7a10.242,10.242,0,0,1,.08-1.716.693.693,0,0,1,.329-.489,2.593,2.593,0,0,1,1.057-.136h.477V254.7H817.4v.375h.239a2.348,2.348,0,0,1,1.068.148.722.722,0,0,1,.318.523,11.651,11.651,0,0,1,.079,1.682v5.341a10.723,10.723,0,0,1-.079,1.739.8.8,0,0,1-.341.545,1.919,1.919,0,0,1-.966.182H817.4v.375h9.261l.079-3.2h-.375a5.936,5.936,0,0,1-.8,1.875Z" transform="translate(-724.515 -225.757)"/><path d="M943.382,256.539a4.772,4.772,0,0,0-2.023-2,8.073,8.073,0,0,0-3.784-.739c-.523,0-1.523.034-3.023.114l-1.8.091v.375h.318a2.585,2.585,0,0,1,1.068.136.723.723,0,0,1,.318.523,11.762,11.762,0,0,1,.08,1.682v5.261a10.7,10.7,0,0,1-.08,1.739.805.805,0,0,1-.341.545,1.918,1.918,0,0,1-.966.182H932.7v.375h4.829c.909,0,1.6-.034,2.1-.08a5.949,5.949,0,0,0,1.58-.421,4.16,4.16,0,0,0,1.466-1,4.558,4.558,0,0,0,.989-1.648,6.387,6.387,0,0,0,.364-2.193,6.077,6.077,0,0,0-.648-2.943Zm-1.7,5.966a3.228,3.228,0,0,1-1.534,1.534,6,6,0,0,1-2.341.386,2.772,2.772,0,0,1-1.273-.193.849.849,0,0,1-.363-.659,19.937,19.937,0,0,1-.057-2.08v-7.284c.42-.023.829-.045,1.239-.045a7.07,7.07,0,0,1,2.08.25,3.366,3.366,0,0,1,1.477.92,4.536,4.536,0,0,1,1.023,1.761,7.882,7.882,0,0,1,.352,2.466,5.837,5.837,0,0,1-.6,2.943Z" transform="translate(-826.713 -224.96)"/><path d="M452.02,402.784a2.858,2.858,0,0,1,1.773.6,3.311,3.311,0,0,1,1.034,2.159h.239L455,402.636h-.25a2.969,2.969,0,0,1-.3,1,3.178,3.178,0,0,0-1.045-.784,3.372,3.372,0,0,0-1.557-.352,3.791,3.791,0,0,0-1.909.489,3.267,3.267,0,0,0-1.352,1.489,4.786,4.786,0,0,0-.489,2.136,3.752,3.752,0,0,0,1.057,2.784,3.682,3.682,0,0,0,2.716,1.057,3.331,3.331,0,0,0,2.591-1.148,2.009,2.009,0,0,1,.364.807h.239v-2.682h-.239a3.854,3.854,0,0,1-.443,1.386,2.15,2.15,0,0,1-1.023,1.011,2.916,2.916,0,0,1-1.261.3,2.431,2.431,0,0,1-1.932-.92,4.042,4.042,0,0,1-.773-2.648,4.743,4.743,0,0,1,.7-2.8,2.3,2.3,0,0,1,1.92-.977Z" transform="translate(-397.18 -356.762)"/><path d="M539,403.327a3.2,3.2,0,0,0-4.08.011,2.49,2.49,0,0,0-.818,1.955,2.619,2.619,0,0,0,.807,2,3.211,3.211,0,0,0,4.125,0,2.61,2.61,0,0,0,.784-1.977,2.458,2.458,0,0,0-.818-1.989Zm-.58,3.852a1.707,1.707,0,0,1-1.4.636,1.815,1.815,0,0,1-1.511-.636,2.979,2.979,0,0,1-.5-1.9,3.06,3.06,0,0,1,.5-1.886,1.759,1.759,0,0,1,1.454-.636,1.729,1.729,0,0,1,1.466.648,2.972,2.972,0,0,1,.511,1.875,3.07,3.07,0,0,1-.523,1.9Z" transform="translate(-473.408 -356.851)"/><path d="M555.311,463.5a.5.5,0,0,0-.364.148.48.48,0,0,0-.148.364.5.5,0,0,0,.148.364.49.49,0,0,0,.364.159.514.514,0,0,0,.364-.875A.452.452,0,0,0,555.311,463.5Z" transform="translate(-491.755 -410.83)"/><path d="M454,0h1.852V.3H454Z" transform="translate(-402.41)"/><path d="M456.4,5h1.284V7.4H456.4Z" transform="translate(-404.537 -4.432)"/><path d="M561.9,0h1.852V.3H561.9Z" transform="translate(-498.049)"/><path d="M564.4,5h1.284V7.4H564.4Z" transform="translate(-500.265 -4.432)"/><path d="M461.1,123.7h1.239v1.148H461.1Z" transform="translate(-408.703 -109.643)"/><path d="M518.8,110.8h1.273v1.148H518.8Z" transform="translate(-459.846 -98.209)"/><path d="M561.9,123.7h1.273v1.148H561.9Z" transform="translate(-498.049 -109.643)"/><path d="M561.9,110.7h1.273v1.148H561.9Z" transform="translate(-498.049 -98.121)"/><path d="M475,110.7h1.273v1.148H475Z" transform="translate(-421.023 -98.121)"/><path d="M475,123.7h1.273v1.148H475Z" transform="translate(-421.023 -109.643)"/><path d="M461.1,110.7h1.239v1.148H461.1Z" transform="translate(-408.703 -98.121)"/><path d="M518.8,81h1.273v1.148H518.8Z" transform="translate(-459.846 -71.796)"/><path d="M504.9,68h1.239v1.148H504.9Z" transform="translate(-447.526 -60.273)"/><path d="M504.9,81h1.239v1.148H504.9Z" transform="translate(-447.526 -71.796)"/><path d="M518.8,68h1.273v1.148H518.8Z" transform="translate(-459.846 -60.273)"/><path d="M504.9,123.8h1.239v1.148H504.9Z" transform="translate(-447.526 -109.732)"/><path d="M504.9,110.8h1.239v1.148H504.9Z" transform="translate(-447.526 -98.209)"/><path d="M518.8,123.8h1.273v1.148H518.8Z" transform="translate(-459.846 -109.732)"/><path d="M490.8,189.8h.989v.352H490.8Z" transform="translate(-435.028 -168.232)"/><path d="M487,178h1.432v.989H487Z" transform="translate(-431.66 -157.773)"/><path d="M490.8,164h.989v.432H490.8Z" transform="translate(-435.028 -145.364)"/><path d="M536.791,154.8H534.7a1.616,1.616,0,0,1,.045.25h.011v.466h2.034Z" transform="translate(-473.939 -137.209)"/><path d="M495.8,195.9h.42v.42h-.42Z" transform="translate(-439.46 -173.639)"/><path d="M486.825,155.311v-.08a1.612,1.612,0,0,1,.057-.409V154.8H485.2v.716h1.625Z" transform="translate(-430.065 -137.209)"/><path d="M480.4,170.8h2.17v.489H480.4Z" transform="translate(-425.81 -151.391)"/><path d="M535.2,164h1.4v.432h-1.4Z" transform="translate(-474.383 -145.364)"/><path d="M504.9,146.6a1.429,1.429,0,0,0-1.6,1.375v4.568l3.2-.636v-3.943a1.427,1.427,0,0,0-1.6-1.364Zm1.023,3.7-1.954.159v-.8l1.954-.08Z" transform="translate(-446.108 -129.941)"/><path d="M535.2,170.8h2.579v.489H535.2Z" transform="translate(-474.383 -151.391)"/><path d="M535.2,178h1.841v.989H535.2Z" transform="translate(-474.383 -157.773)"/><path d="M535.2,189.8h1.4v.352h-1.4Z" transform="translate(-474.383 -168.232)"/><path d="M535.2,195.9h.829v.42H535.2Z" transform="translate(-474.383 -173.639)"/><path d="M587.2,152.9h1.273v.455H587.2Z" transform="translate(-520.474 -135.525)"/><path d="M586.877,159.8H585.4v.909h1.477Z" transform="translate(-518.878 -141.641)"/><path d="M440.907,32.32l-.3-.068,2.955-3.284,2.943,3.284-.261.068v3.409h6.534L450.213,28.4h-13.6L434.1,35.729h6.807Z" transform="translate(-384.771 -25.173)"/><path d="M434.1,106.8h.989v.58H434.1Z" transform="translate(-384.771 -94.664)"/><path d="M581.9,179.2h1.886v.648H581.9Z" transform="translate(-515.776 -158.837)"/><path d="M590.3,170.8h.92v.614h-.92Z" transform="translate(-523.221 -151.391)"/><path d="M434.1,95.8h1.466v.909H434.1Z" transform="translate(-384.771 -84.914)"/><path d="M590.1,106.8h.943v.58H590.1Z" transform="translate(-523.044 -94.664)"/><path d="M587.2,123.5h1.273v1.239H587.2Z" transform="translate(-520.474 -109.466)"/><path d="M585.5,95.8h1.466v.909H585.5Z" transform="translate(-518.967 -84.914)"/><path d="M593,114.9h.625v.648H593Z" transform="translate(-525.615 -101.843)"/><path d="M434.1,114.9h.625v.648H434.1Z" transform="translate(-384.771 -101.843)"/><path d="M590.3,137.6h.932v.489H590.3Z" transform="translate(-523.221 -121.964)"/><path d="M586.8,187.9h1.318v1.307H586.8Z" transform="translate(-520.119 -166.548)"/><path d="M593.3,144.8h.58v.58h-.58Z" transform="translate(-525.88 -128.346)"/><path d="M434.1,187.9h1.318v1.307H434.1Z" transform="translate(-384.771 -166.548)"/><path d="M434.1,123.5h1.318v1.239H434.1Z" transform="translate(-384.771 -109.466)"/><path d="M434.1,179.2h1.886v.648H434.1Z" transform="translate(-384.771 -158.837)"/><path d="M434.1,170.9h1.057v.58H434.1Z" transform="translate(-384.771 -151.48)"/><path d="M458.125,56.984h-.557V55.666h.955v-.625h-.568v-1.58h.216v-.8h.693v-.58h-.341v-.841h-.341V49.336h.648v-.648h-.318v-.92h-.523v-1.25h-5.057V42.745L450.557,40.2l-2.318,2.545v3.761H442.9v1.25h-.477v.92h-.375v.648h.7v1.909h-.25v.841H442v.591h.75v.8h.148v1.58h-.42v.614h.83v1.318h-.557V58.3h5.023v-.42H447.2v-.7h-.443V55.859h-.739V54.7h1.193v-.432h-.636V52.882h2.136a2.189,2.189,0,0,1,3.7,0h2.534v1.386h-.636V54.7h1.193v1.159h-.75v1.318h-.443v.7h-.568v.42h4.364V56.984ZM447.386,51.2H443.8V47.836h3.591Zm4.977.011h-3.591V47.848h3.591Zm0-4.864h-3.591V42.984h3.591Zm4.909,4.852h-3.591V47.836h3.591Z" transform="translate(-391.773 -35.632)"/><path d="M548.1,123.7h1.239v1.148H548.1Z" transform="translate(-485.817 -109.643)"/><path d="M548.1,110.7h1.239v1.148H548.1Z" transform="translate(-485.817 -98.121)"/><path d="M434.1,159.8h1.466v.909H434.1Z" transform="translate(-384.771 -141.641)"/><path d="M434.1,137.5h1.068v.489H434.1Z" transform="translate(-384.771 -121.875)"/><path d="M434.1,144.8h.568v.58H434.1Z" transform="translate(-384.771 -128.346)"/><path d="M434.1,152.9h1.318v.455H434.1Z" transform="translate(-384.771 -135.525)"/><path d="M375.079,166.041a3.4,3.4,0,0,0,.443-1.091s.023-.114.08-.034a1.269,1.269,0,0,1,.261.636,1.909,1.909,0,0,1-.136.489l.25.011a4.078,4.078,0,0,0,.25-1.341c.2-.057.068-.193.068-.193.227.034.091-.216.091-.216.216-.034.068-.216.068-.216.216-.045.045-.17.045-.17.216-.068.034-.17.034-.17.2-.1.023-.193.023-.193.2-.114,0-.227,0-.227.159-.17-.068-.216-.068-.216.114-.2-.114-.193-.114-.193.08-.261-.216-.216-.216-.216.011-.25-.193-.114-.193-.114-.08-.273-.3-.091-.3-.091a.137.137,0,0,0-.25-.023c-.17-.193-.273.011-.273.011-.148-.159-.216.023-.216.023-.136-.182-.25.023-.25.023a7.723,7.723,0,0,1-.557.057c-.2-.17-.307.011-.307.011-.136-.182-.239-.011-.239-.011a.16.16,0,0,0-.273,0,.187.187,0,0,0-.273-.057.681.681,0,0,1-.182-.091,1.46,1.46,0,0,0-.409-.25c.068-.011.273-.034.341-.182.08-.17.034-.3-.057-.307a1.54,1.54,0,0,0-.5.25.354.354,0,0,0-.318-.17c-.2.023-.375.25-.409.284a1.48,1.48,0,0,1-.227.261c-.068.057-.17.114-.2.148-.011.023-.034.045-.057.091a.172.172,0,0,0,.011.148l.034.034.023.023c.182.193.5-.091.682.148a1.018,1.018,0,0,1,.17.216l.023.034s-.091.148.1.216c0,0-.136.1.034.2,0,0-.159.1.023.216,0,0-.136.136.034.182,0,0-.159.148.068.193,0,0-.114.17.068.159,0,0-.1.159.091.159,0,0-.091.193.136.2,0,0-.1.193.125.193l.023.045a.454.454,0,0,1,.045.148,1.923,1.923,0,0,1-.034.761c-.023.068-.068.1-.057.193.091,0,.159-.011.25-.011a10.456,10.456,0,0,1,.227-1.068c.023-.045.023-.023.034-.068,0,.011.011-.011.034.045a1.385,1.385,0,0,1,.068.614,2.664,2.664,0,0,1-.079.466h.227c.193-.977.057-1.125.534-1.216a3.417,3.417,0,0,1,.761-.023c.091,0,.364.057.409.136.023.045.068.057.057.114a2.775,2.775,0,0,1-.227.977.289.289,0,0,0,.17.034Z" transform="translate(-328.842 -143.325)"/><path d="M617.825,162.761a.208.208,0,0,0-.057-.091,2.028,2.028,0,0,0-.193-.148,1.491,1.491,0,0,1-.227-.261.63.63,0,0,0-.409-.284.354.354,0,0,0-.318.17s-.352-.261-.5-.25c-.091,0-.125.136-.057.307.068.136.273.17.341.182-.114,0-.341.2-.409.25a1.377,1.377,0,0,1-.182.091.2.2,0,0,0-.273.057.16.16,0,0,0-.273,0,.132.132,0,0,0-.239.011s-.1-.193-.307-.011a.161.161,0,0,0-.273-.023.167.167,0,0,0-.284-.034s-.125-.2-.25-.023c0,0-.068-.182-.216-.023,0,0-.1-.2-.273-.011a.137.137,0,0,0-.25.023s-.216-.182-.3.091c0,0-.2-.125-.193.114,0,0-.3-.034-.216.216,0,0-.227-.011-.114.193,0,0-.227.057-.068.216,0,0-.2.1,0,.227,0,0-.182.091.023.193,0,0-.182.1.034.17,0,0-.182.125.046.17,0,0-.148.193.068.216,0,0-.136.25.091.216,0,0-.136.148.068.193a3.847,3.847,0,0,0,.25,1.341l.25-.011a2.515,2.515,0,0,1-.136-.489,1.268,1.268,0,0,1,.261-.636c.057-.08.079.034.079.034a3.154,3.154,0,0,0,.443,1.091h.193a2.783,2.783,0,0,1-.227-.977c0-.057.034-.068.057-.114.045-.08.307-.136.409-.136a3.415,3.415,0,0,1,.761.023c.477.091.341.239.534,1.216h.227a2.846,2.846,0,0,1-.08-.466,1.79,1.79,0,0,1,.068-.614c.023-.057.034-.034.034-.045a.359.359,0,0,0,.034.068,10.455,10.455,0,0,1,.227,1.068c.091,0,.159.011.25.011.011-.091-.034-.125-.057-.193a1.923,1.923,0,0,1-.034-.761c.011-.057.034-.1.045-.148l.023-.045c.227.011.125-.193.125-.193.227,0,.136-.2.136-.2.182,0,.091-.159.091-.159.182.011.068-.159.068-.159.227-.045.068-.193.068-.193.17-.045.034-.182.034-.182.182-.114.023-.216.023-.216.182-.1.034-.2.034-.2.193-.068.1-.216.1-.216l.023-.034a1.577,1.577,0,0,1,.171-.216c.182-.239.5.045.682-.148l.023-.023.034-.034c-.011-.091-.011-.136-.023-.182Z" transform="translate(-542.633 -143.5)"/></svg>