<svg xmlns="http://www.w3.org/2000/svg" width="59.362" height="46.496" viewBox="0 0 59.362 46.496"><path d="M0,459.321a.306.306,0,0,0,.3.3H59.057a.306.306,0,0,0,.3-.3V458.5a.306.306,0,0,0-.3-.3H.3a.306.306,0,0,0-.3.3Z" transform="translate(0 -413.13)" fill="#00a8bd"/><path d="M0,1.121a.306.306,0,0,0,.3.3H59.057a.306.306,0,0,0,.3-.3V.3a.306.306,0,0,0-.3-.3H.3A.306.306,0,0,0,0,.3Z" fill="#ffc805"/><path d="M50.1,60.907c5.321,0,9.266-2.39,9.266-6.935,0-5.105-5.5-7.023-8.725-8.154-2.774-.954-3.856-1.436-3.856-2.361,0-.777.807-1.584,2.843-1.584,1.967,0,3.108.9,3.462,1.879a.968.968,0,0,0,1.013.807H58.25a.824.824,0,0,0,.777-.836c-.3-4.18-4.092-7.023-9.531-7.023-5.321,0-9.108,2.774-9.108,7.23,0,4.81,4.869,6.6,8.577,7.83,2.813.954,3.974,1.554,3.974,2.538,0,.689-.718,1.436-2.961,1.436-2.1,0-3.315-.718-3.738-1.5-.354-.63-.511-.777-1.19-.777H41.017a.824.824,0,0,0-.777.836c.423,4.279,4.574,6.61,9.856,6.61M33.01,51.73c0,2.774-1.19,3.4-2.931,3.4-1.554,0-2.961-.63-2.961-3.4V50.5a.729.729,0,0,0-.718-.718H21.856a.729.729,0,0,0-.718.718v1.318c0,6.246,4.269,9.079,8.931,9.079,4.839,0,8.872-2.843,8.872-9.079V37.87a.729.729,0,0,0-.718-.718H33.709a.729.729,0,0,0-.718.718V51.73Zm-19.9-7.289c0,1.1-.6,1.849-2.213,1.849H6.571a.6.6,0,0,1-.6-.6V43.182a.6.6,0,0,1,.6-.6h4.662a1.712,1.712,0,0,1,1.879,1.859m1.052,8.518c0,1.23-.6,2.1-2.213,2.1H6.571a.6.6,0,0,1-.6-.6v-2.9a.6.6,0,0,1,.6-.6h5.38c1.613,0,2.213.807,2.213,2.007m-1.554,7.5c4.721,0,7.584-2.715,7.584-6.571a5.389,5.389,0,0,0-3.344-5.164.3.3,0,0,1-.03-.541,5.264,5.264,0,0,0,2.331-4.6c0-3.708-2.538-6.423-7.554-6.423H.718A.729.729,0,0,0,0,37.87V59.736a.729.729,0,0,0,.718.718Z" transform="translate(0 -33.09)" fill="#ffc805"/><path d="M7.815,309.228h-3.7v2.715h3.7a.391.391,0,0,0,.384-.384v-1.938a.393.393,0,0,0-.384-.393M.684,316.861H3.516v-3.423h0v-.964h0v-3.551h0v-1.161h0V304.32H.684A.391.391,0,0,0,.3,304.7v11.784a.389.389,0,0,0,.384.374m9.256-9.817v-2.351a.391.391,0,0,0-.384-.384H4.116v3.118H9.556a.391.391,0,0,0,.384-.384m0,9.433v-2.331a.391.391,0,0,0-.384-.384H4.116v3.1H9.556a.391.391,0,0,0,.384-.384m4.446-5.38-3.728,5.439a.2.2,0,0,0,.157.325h3.138a.733.733,0,0,0,.6-.325l1.761-2.587Zm8.213-6.472a.216.216,0,0,0-.177-.325h-3.03a.765.765,0,0,0-.61.325L17.022,307.2l1.918,2.813Zm.118,12-8.243-12.079a.739.739,0,0,0-.531-.236h-3.03a.216.216,0,0,0-.177.325l7.407,10.977.639.934a.72.72,0,0,0,.6.325H22.52a.215.215,0,0,0,.2-.246m.846-9.2h2.931V304.31H23.563a.391.391,0,0,0-.384.384v2.351a.378.378,0,0,0,.384.384m6.738,9.049V304.31H27.084v3.443h0v8.725a.391.391,0,0,0,.384.384h2.449a.391.391,0,0,0,.384-.384m3.915-9.433v-2.351a.391.391,0,0,0-.384-.384H30.9v3.118h2.931a.391.391,0,0,0,.384-.384m4.033,6.777h0v-3.561h0v-2.7h0V304.31H35.435a.391.391,0,0,0-.384.384v11.784a.391.391,0,0,0,.384.384h2.43a.391.391,0,0,0,.384-.384Zm7.653,2.715-2.3-3.207a.282.282,0,0,1,.1-.423,4.407,4.407,0,0,0,2.193-4.023,4.31,4.31,0,0,0-4.7-4.584H38.858v2.931h2.154a1.552,1.552,0,0,1,1.771,1.692,1.574,1.574,0,0,1-1.771,1.662H38.858V313.5h.718a.638.638,0,0,1,.511.256l1.967,2.784a.779.779,0,0,0,.61.325h3.079a.205.205,0,0,0,.157-.325m13.692-.03-4.78-11.843a.583.583,0,0,0-.531-.354h-2.41a.583.583,0,0,0-.531.354l-4.8,11.843a.259.259,0,0,0,.246.354H49.52a.556.556,0,0,0,.511-.354l.275-.728,1.485-3.964v-.01l1.161-3.079a.119.119,0,0,1,.226,0l1.141,3.079a.226.226,0,0,1-.207.3h-1.79l-1.092,2.912h3.984a.459.459,0,0,1,.433.3L56.1,316.5a.556.556,0,0,0,.511.354h2.734a.249.249,0,0,0,.246-.344" transform="translate(-0.27 -274.368)" fill="#00a8bd"/></svg>