<svg xmlns="http://www.w3.org/2000/svg" width="59.204" height="35.704" viewBox="0 0 59.204 35.704"><path d="M59.281,222.063a.277.277,0,0,0,.274-.274v-1.633a.277.277,0,0,0-.274-.274h-4a.223.223,0,0,1-.224-.224v-.673a.223.223,0,0,1,.224-.224h3.2a.277.277,0,0,0,.274-.274v-1.5a.277.277,0,0,0-.274-.274h-3.2a.223.223,0,0,1-.224-.224v-.81a.223.223,0,0,1,.224-.224h4a.277.277,0,0,0,.274-.274v-1.646a.277.277,0,0,0-.274-.274H53.073a.277.277,0,0,0-.274.274v8.24a.277.277,0,0,0,.274.274h6.208Zm-9.6-3.254a.125.125,0,0,1,.112.112v.037a.415.415,0,0,1-.062.187,2.266,2.266,0,0,1-1.808.91,2.394,2.394,0,1,1,1.7-4.089.312.312,0,0,0,.411.05l1.384-.935a.257.257,0,0,0,.05-.362,4.737,4.737,0,0,0-3.553-1.621,4.564,4.564,0,1,0,0,9.126,2.817,2.817,0,0,0,2.082-.81.076.076,0,0,1,.137.05v.324a.277.277,0,0,0,.274.274h1.222a.277.277,0,0,0,.274-.274V217.2a.277.277,0,0,0-.274-.274h-3.69a.277.277,0,0,0-.274.274v1.334a.277.277,0,0,0,.274.274Zm-11.27-.062a.165.165,0,0,1-.15-.212l.81-2.157a.086.086,0,0,1,.162,0l.8,2.157a.158.158,0,0,1-.15.212Zm-3.827,3.079a.182.182,0,0,0,.175.249h1.92a.392.392,0,0,0,.362-.249l.312-.823a.337.337,0,0,1,.3-.212h3a.31.31,0,0,1,.3.212l.312.823a.392.392,0,0,0,.362.249h1.92a.188.188,0,0,0,.175-.249l-3.341-8.3a.409.409,0,0,0-.374-.249h-1.7a.409.409,0,0,0-.374.249Zm-.91.237a.277.277,0,0,0,.274-.274v-1.633a.277.277,0,0,0-.274-.274H29.959a.223.223,0,0,1-.224-.224v-6.121a.277.277,0,0,0-.274-.274h-1.7a.277.277,0,0,0-.274.274v8.24a.277.277,0,0,0,.274.274h5.909Zm-9.362-3.977c0,1.272-.623,1.97-1.808,1.97s-1.783-.7-1.783-1.97v-4.538a.277.277,0,0,0-.274-.274H18.739a.277.277,0,0,0-.274.274v4.675a3.758,3.758,0,0,0,4.027,4.014,3.768,3.768,0,0,0,4.039-4.014v-4.675a.277.277,0,0,0-.274-.274h-1.7a.277.277,0,0,0-.274.274v4.538Zm-10.946.661a.165.165,0,0,1-.15-.212l.81-2.157a.086.086,0,0,1,.162,0l.8,2.157a.158.158,0,0,1-.15.212Zm-3.827,3.079a.182.182,0,0,0,.175.249h1.92a.392.392,0,0,0,.362-.249l.312-.823a.337.337,0,0,1,.3-.212h3a.31.31,0,0,1,.3.212l.312.823a.392.392,0,0,0,.362.249H18.5a.188.188,0,0,0,.175-.249l-3.354-8.3a.409.409,0,0,0-.374-.249h-1.7a.409.409,0,0,0-.374.249Zm-2.917-5.361a.223.223,0,0,1-.224.224H3.268a.223.223,0,0,1-.224-.224v-2.917a.277.277,0,0,0-.274-.274h-1.7a.277.277,0,0,0-.274.274v8.24a.277.277,0,0,0,.274.274h1.7a.277.277,0,0,0,.274-.274v-2.768a.223.223,0,0,1,.224-.224H6.4a.223.223,0,0,1,.224.224v2.768a.277.277,0,0,0,.274.274H8.6a.277.277,0,0,0,.274-.274v-8.24a.277.277,0,0,0-.274-.274H6.9a.277.277,0,0,0-.274.274Z" transform="translate(-0.7 -186.534)"/><path d="M49.966,24.123c5.3,0,9.238-2.381,9.238-6.907,0-5.1-5.485-7.006-8.7-8.128-2.768-.947-3.84-1.434-3.84-2.356,0-.773.81-1.583,2.83-1.583,1.97,0,3.1.9,3.453,1.882a.97.97,0,0,0,1.01.81h4.139a.815.815,0,0,0,.773-.835C58.568,2.83,54.791,0,49.368,0c-5.3,0-9.088,2.768-9.088,7.206,0,4.8,4.862,6.582,8.552,7.8,2.8.947,3.964,1.546,3.964,2.531,0,.686-.711,1.434-2.955,1.434-2.082,0-3.3-.711-3.728-1.484-.362-.623-.511-.773-1.2-.773H40.89a.815.815,0,0,0-.773.835c.436,4.239,4.575,6.57,9.849,6.57m-17.042-9.15c0,2.768-1.2,3.391-2.917,3.391-1.546,0-2.955-.623-2.955-3.391V13.751a.718.718,0,0,0-.711-.711H21.817a.718.718,0,0,0-.711.711V15.06c0,6.221,4.264,9.051,8.914,9.051,4.825,0,8.851-2.83,8.851-9.051V1.147A.718.718,0,0,0,38.16.436h-4.5a.718.718,0,0,0-.711.711V14.972ZM13.077,7.7c0,1.1-.6,1.845-2.207,1.845H6.545a.607.607,0,0,1-.6-.6V6.445a.607.607,0,0,1,.6-.6H11.2A1.717,1.717,0,0,1,13.077,7.7m1.047,8.49c0,1.222-.6,2.082-2.207,2.082H6.557a.607.607,0,0,1-.6-.6V14.785a.607.607,0,0,1,.6-.6h5.361c1.608.012,2.207.81,2.207,2.007m-1.546,7.48c4.712,0,7.567-2.705,7.567-6.557A5.359,5.359,0,0,0,16.8,11.968a.3.3,0,0,1-.025-.536A5.241,5.241,0,0,0,19.1,6.844c0-3.69-2.531-6.408-7.542-6.408H.711A.718.718,0,0,0,0,1.147v21.8a.718.718,0,0,0,.711.711H12.579Z" fill="#feba30"/></svg>