<?xml version="1.0" encoding="utf-8"?>
<!-- Generator: Adobe Illustrator 25.4.1, SVG Export Plug-In . SVG Version: 6.00 Build 0)  -->
<svg version="1.1" id="Layer_1" xmlns="http://www.w3.org/2000/svg" xmlns:xlink="http://www.w3.org/1999/xlink" x="0px" y="0px"
	 viewBox="0 0 690.64 477.89" style="enable-background:new 0 0 690.64 477.89;" xml:space="preserve">
<style type="text/css">
	.st0{fill:#FEBA30;}
	.st1{fill:#877B6F;}
</style>
<path class="st0" d="M580.62,280.44c61.63,0,107.33-27.7,107.33-80.32c0-59.2-63.71-81.36-101.1-94.52
	c-32.2-11.08-44.66-16.62-44.66-27.35c0-9,9.35-18.35,32.89-18.35c22.85,0,36.01,10.39,40.16,21.81c2.08,6.23,5.19,9.35,11.77,9.35
	h48.13c4.85,0,9.35-4.84,9-9.69C680.68,32.89,636.7,0,573.69,0c-61.63,0-105.6,32.2-105.6,83.79c0,55.74,56.43,76.52,99.37,90.71
	c32.55,11.08,46.05,18,46.05,29.43c0,7.97-8.31,16.62-34.28,16.62c-24.23,0-38.43-8.31-43.28-17.31c-4.16-7.27-5.89-9-13.85-9
	h-46.74c-4.85,0-9.35,4.85-9,9.69C471.21,253.44,519.34,280.44,580.62,280.44 M382.58,174.15c0,32.2-13.85,39.47-33.93,39.47
	c-18,0-34.28-7.27-34.28-39.47v-14.2c0-4.5-3.81-8.31-8.31-8.31h-52.63c-4.5,0-8.31,3.81-8.31,8.31v15.23
	c0,72.36,49.51,105.25,103.52,105.25c56.09,0,102.83-32.89,102.83-105.25V13.5c0-4.5-3.81-8.31-8.31-8.31h-52.28
	c-4.5,0-8.31,3.81-8.31,8.31V174.15z M151.99,89.67c0,12.81-6.92,21.47-25.62,21.47h-50.2c-3.81,0-6.92-3.12-6.92-6.92V75.13
	c0-3.81,3.12-6.92,6.92-6.92h54.01C144.72,68.21,151.99,76.86,151.99,89.67 M164.11,188.35c0,14.2-6.92,24.24-25.62,24.24H76.17
	c-3.81,0-6.92-3.12-6.92-6.93v-33.58c0-3.81,3.12-6.93,6.92-6.93h62.32C157.19,165.15,164.11,174.5,164.11,188.35 M146.11,275.25
	c54.7,0,87.94-31.51,87.94-76.17c0-29.08-14.89-48.82-38.78-59.9c-2.77-1.38-2.77-4.5-0.35-6.23c16.62-11.43,27-28.74,27-53.32
	c0-42.93-29.43-74.44-87.6-74.44H8.31C3.81,5.19,0,9,0,13.5v253.44c0,4.5,3.81,8.31,8.31,8.31H146.11z"/>
<path class="st1" d="M682.33,358.2c0.94,0,1.74-0.8,1.74-1.75v-10.53c0-0.94-0.8-1.74-1.74-1.74h-25.79c-0.8,0-1.45-0.65-1.45-1.45
	v-4.36c0-0.8,0.65-1.45,1.45-1.45h20.63c0.94,0,1.74-0.8,1.74-1.74v-9.66c0-0.95-0.8-1.75-1.74-1.75h-20.63
	c-0.8,0-1.45-0.66-1.45-1.45v-5.23c0-0.8,0.65-1.45,1.45-1.45h25.79c0.94,0,1.74-0.8,1.74-1.74v-10.61c0-0.94-0.8-1.74-1.74-1.74
	H642.3c-0.95,0-1.74,0.8-1.74,1.74v53.18c0,0.95,0.8,1.75,1.74,1.75H682.33z M585.06,330.59c0-0.36,0.51-0.51,0.65-0.15l10.32,20.71
	c0.51,0.87,1.53,1.52,2.54,1.52h6.03c1.02,0,2.03-0.66,2.54-1.52l10.32-20.71c0.14-0.36,0.66-0.22,0.66,0.15v25.86
	c0,0.95,0.8,1.75,1.74,1.75h10.97c0.94,0,1.74-0.8,1.74-1.75v-53.18c0-0.94-0.8-1.74-1.74-1.74h-11.12c-1.02,0-2.04,0.65-2.54,1.52
	L602.2,332.7c-0.29,0.58-1.02,0.58-1.31,0L586,303.06c-0.51-0.87-1.53-1.52-2.54-1.52h-11.12c-0.94,0-1.74,0.8-1.74,1.74v53.18
	c0,0.95,0.8,1.75,1.74,1.75h10.97c0.94,0,1.74-0.8,1.74-1.75V330.59z M534.49,314.46c8.72,0,15.4,6.83,15.4,15.4
	s-6.68,15.4-15.4,15.4c-8.5,0-15.4-6.83-15.4-15.4S525.99,314.46,534.49,314.46 M534.49,359.29c16.56,0,30.08-13.22,30.08-29.42
	c0-16.2-13.51-29.42-30.08-29.42c-16.35,0-30.08,13.22-30.08,29.42C504.42,346.07,518.15,359.29,534.49,359.29 M483.85,322.09
	c0,0.8-0.65,1.45-1.45,1.45h-20.2c-0.8,0-1.45-0.65-1.45-1.45v-18.82c0-0.94-0.8-1.74-1.74-1.74h-10.97c-0.94,0-1.74,0.8-1.74,1.74
	v53.18c0,0.95,0.8,1.75,1.74,1.75h10.97c0.94,0,1.74-0.8,1.74-1.75v-17.87c0-0.8,0.66-1.45,1.45-1.45h20.2
	c0.8,0,1.45,0.65,1.45,1.45v17.87c0,0.95,0.8,1.75,1.75,1.75h11.04c0.95,0,1.74-0.8,1.74-1.75v-53.18c0-0.94-0.8-1.74-1.74-1.74
	H485.6c-0.94,0-1.75,0.8-1.75,1.74V322.09z M381.79,328.05c0-0.51,0.58-0.73,0.87-0.29l23.32,29.06c0.65,0.87,1.74,1.38,2.83,1.38
	h8.79c0.94,0,1.75-0.8,1.75-1.75v-53.18c0-0.94-0.8-1.74-1.75-1.74h-10.97c-0.94,0-1.75,0.8-1.75,1.74v28.48
	c0,0.51-0.58,0.73-0.87,0.29l-23.32-29.13c-0.65-0.87-1.75-1.38-2.83-1.38h-8.79c-0.95,0-1.74,0.8-1.74,1.74v53.18
	c0,0.95,0.8,1.75,1.74,1.75h10.97c0.94,0,1.74-0.8,1.74-1.75V328.05z M327.37,336.77c-0.73,0-1.16-0.73-0.95-1.38l5.23-13.88
	c0.15-0.51,0.87-0.51,1.02,0l5.16,13.88c0.22,0.65-0.22,1.38-0.94,1.38H327.37z M302.67,356.6c-0.29,0.73,0.22,1.6,1.09,1.6h12.35
	c1.02,0,1.96-0.65,2.33-1.6l2.03-5.3c0.29-0.8,1.09-1.38,1.96-1.38h19.4c0.87,0,1.67,0.58,1.96,1.38l2.04,5.3
	c0.36,0.95,1.31,1.6,2.33,1.6h12.35c0.87,0,1.38-0.87,1.09-1.6l-21.58-53.47c-0.36-0.94-1.38-1.6-2.4-1.6h-10.9
	c-1.02,0-2.03,0.65-2.4,1.6L302.67,356.6z M249.42,330.59c0-0.36,0.51-0.51,0.65-0.15l10.32,20.71c0.51,0.87,1.53,1.52,2.54,1.52
	h6.03c1.02,0,2.04-0.66,2.54-1.52l10.32-20.71c0.15-0.36,0.65-0.22,0.65,0.15v25.86c0,0.95,0.8,1.75,1.74,1.75h10.97
	c0.94,0,1.74-0.8,1.74-1.75v-53.18c0-0.94-0.8-1.74-1.74-1.74h-11.11c-1.02,0-2.04,0.65-2.54,1.52l-14.97,29.64
	c-0.29,0.58-1.02,0.58-1.31,0l-14.89-29.64c-0.51-0.87-1.53-1.52-2.54-1.52h-11.12c-0.95,0-1.74,0.8-1.74,1.74v53.18
	c0,0.95,0.8,1.75,1.74,1.75h10.97c0.94,0,1.74-0.8,1.74-1.75V330.59z M206.92,327.76c-0.94,0-1.74,0.8-1.74,1.74v10.1
	c0,0.94,0.8,1.74,1.74,1.74h18.53c0.94,0,1.74-0.8,1.74-1.74v-10.1c0-0.95-0.8-1.74-1.74-1.74H206.92z M169.29,314.46
	c8.72,0,15.4,6.83,15.4,15.4s-6.68,15.4-15.4,15.4c-8.5,0-15.4-6.83-15.4-15.4S160.79,314.46,169.29,314.46 M169.29,359.29
	c16.56,0,30.08-13.22,30.08-29.42c0-16.2-13.51-29.42-30.08-29.42c-16.35,0-30.08,13.22-30.08,29.42
	C139.21,346.07,152.94,359.29,169.29,359.29 M96.71,326.67c0.15-0.43,0.73-0.43,0.87,0l9.88,29.86c0.29,1.02,1.23,1.67,2.25,1.67
	h11.55c1.02,0,1.96-0.73,2.18-1.67l15.04-53.32c0.22-0.8-0.44-1.67-1.31-1.67h-12.06c-1.02,0-1.96,0.73-2.18,1.67l-8.35,30.66
	c-0.07,0.36-0.65,0.44-0.8,0l-9.66-30.66c-0.29-1.02-1.23-1.67-2.25-1.67h-9.44c-1.02,0-1.96,0.65-2.25,1.67l-9.66,30.73
	c-0.15,0.44-0.73,0.36-0.8,0l-8.35-30.73c-0.22-0.94-1.16-1.67-2.18-1.67H57.19c-0.87,0-1.53,0.87-1.31,1.67l15.04,53.32
	c0.22,0.94,1.16,1.67,2.18,1.67h11.55c1.02,0,1.96-0.65,2.25-1.67L96.71,326.67z M16.65,315.63c0.8,0,1.45,0.65,1.45,1.45v39.37
	c0,0.95,0.8,1.75,1.74,1.75h11.04c0.94,0,1.74-0.8,1.74-1.75v-39.37c0-0.8,0.65-1.45,1.45-1.45h14.46c0.94,0,1.74-0.8,1.74-1.74
	v-10.61c0-0.94-0.8-1.74-1.74-1.74H2.2c-0.95,0-1.74,0.8-1.74,1.74v10.61c0,0.95,0.8,1.74,1.74,1.74H16.65z"/>
<path class="st1" d="M591.64,379.06c-1.39,0-2.15,1.39-1.39,2.53l35.98,57.9c0.89,1.27,1.39,3.17,1.39,4.69v30.66
	c0,1.65,1.39,3.04,3.04,3.04h19.13c1.65,0,3.04-1.39,3.04-3.04v-30.66c0-1.52,0.51-3.42,1.39-4.69l36.11-57.9
	c0.76-1.14,0-2.53-1.39-2.53h-23.82c-1.9,0-3.67,1.01-4.69,2.53l-19.01,31.17c-0.51,1.01-2.03,1.01-2.54,0l-19-31.04
	c-0.89-1.65-2.66-2.66-4.56-2.66H591.64z M567.06,415.43c0,6.84-3.8,13.05-13.94,13.05h-19.13c-1.39,0-2.53-1.14-2.53-2.53v-21.29
	c0-1.39,1.14-2.53,2.53-2.53h19.13C563.26,402.12,567.06,407.82,567.06,415.43 M506.24,474.85c0,1.65,1.39,3.04,3.04,3.04h19.13
	c1.65,0,3.04-1.39,3.04-3.04v-20.91c0-1.39,1.14-2.53,2.53-2.53h7.86c1.52,0,3.17,0.76,4.05,2.03l15.46,21.92
	c1.14,1.52,2.91,2.53,4.82,2.53h24.2c1.27,0,2.03-1.39,1.27-2.53l-18.12-25.21c-0.76-1.14-0.51-2.66,0.76-3.3
	c11.78-6.46,17.23-18.62,17.23-31.67c0-19.64-11.66-36.11-37-36.11h-45.23c-1.65,0-3.04,1.39-3.04,3.04V474.85z M491.55,477.89
	c1.65,0,3.04-1.39,3.04-3.04v-18.37c0-1.65-1.39-3.04-3.04-3.04h-44.98c-1.39,0-2.53-1.14-2.53-2.53v-7.6
	c0-1.39,1.14-2.53,2.53-2.53h35.98c1.65,0,3.04-1.39,3.04-3.04v-16.85c0-1.65-1.39-3.04-3.04-3.04h-35.98
	c-1.39,0-2.53-1.14-2.53-2.53v-9.12c0-1.39,1.14-2.53,2.53-2.53h44.98c1.65,0,3.04-1.39,3.04-3.04v-18.5c0-1.65-1.39-3.04-3.04-3.04
	h-69.81c-1.65,0-3.04,1.39-3.04,3.04v92.74c0,1.65,1.39,3.04,3.04,3.04H491.55z M409.95,381.85c0.51-1.27-0.38-2.79-1.9-2.79h-21.54
	c-1.77,0-3.42,1.14-4.05,2.79l-23.06,61.2c-0.25,0.89-1.52,0.89-1.77,0l-22.93-61.2c-0.63-1.65-2.28-2.79-4.05-2.79H309.1
	c-1.52,0-2.41,1.52-1.9,2.79l37.63,93.25c0.63,1.65,2.41,2.79,4.18,2.79h19c1.77,0,3.55-1.14,4.18-2.79L409.95,381.85z
	 M273.12,474.85c0,1.65,1.39,3.04,3.04,3.04h19.26c1.65,0,3.04-1.39,3.04-3.04v-92.74c0-1.65-1.39-3.04-3.04-3.04h-19.26
	c-1.65,0-3.04,1.39-3.04,3.04V474.85z M260.83,477.89c1.65,0,3.04-1.39,3.04-3.04v-18.37c0-1.65-1.39-3.04-3.04-3.04h-41.81
	c-1.39,0-2.53-1.14-2.53-2.53v-68.8c0-1.65-1.39-3.04-3.04-3.04h-19.13c-1.65,0-3.04,1.39-3.04,3.04v92.74
	c0,1.65,1.39,3.04,3.04,3.04H260.83z M177.21,477.89c1.65,0,3.04-1.39,3.04-3.04v-18.37c0-1.65-1.39-3.04-3.04-3.04h-44.98
	c-1.39,0-2.54-1.14-2.54-2.53v-7.6c0-1.39,1.14-2.53,2.54-2.53h35.98c1.65,0,3.04-1.39,3.04-3.04v-16.85c0-1.65-1.39-3.04-3.04-3.04
	h-35.98c-1.39,0-2.54-1.14-2.54-2.53v-9.12c0-1.39,1.14-2.53,2.54-2.53h44.98c1.65,0,3.04-1.39,3.04-3.04v-18.5
	c0-1.65-1.39-3.04-3.04-3.04h-69.81c-1.65,0-3.04,1.39-3.04,3.04v92.74c0,1.65,1.39,3.04,3.04,3.04H177.21z M68.37,428.48
	c0,14.82-7.98,24.96-23.06,24.96H29.22c-1.39,0-2.54-1.14-2.54-2.53v-44.72c0-1.39,1.14-2.53,2.54-2.53h16.09
	C60.39,403.64,68.37,413.65,68.37,428.48 M47.21,477.89c30.92,0,46.75-22.43,46.75-49.41c0-26.86-15.84-49.41-46.75-49.41H4.39
	c-1.65,0-3.04,1.39-3.04,3.04v92.74c0,1.65,1.39,3.04,3.04,3.04H47.21z"/>
</svg>
