<svg xmlns="http://www.w3.org/2000/svg" width="295.6" height="142.546" viewBox="0 0 295.6 142.546">
  <g id="Group_11433" data-name="Group 11433" transform="translate(0.5 0.5)">
    <g id="Group_11445" data-name="Group 11445" transform="translate(0 0)">
      <path id="Path_645" data-name="Path 645" d="M258.643,50.534a1.945,1.945,0,0,1,1.715,1l7.151,11.68a.541.541,0,0,0,.953,0l7.151-11.727a2.149,2.149,0,0,1,1.764-.953h8.962a.6.6,0,0,1,.524.953L273.277,73.272a3.318,3.318,0,0,0-.525,1.764V86.571a1.16,1.16,0,0,1-1.144,1.144h-7.2a1.16,1.16,0,0,1-1.143-1.144V75.036a3.308,3.308,0,0,0-.525-1.764L249.2,51.487a.6.6,0,0,1,.525-.953Z" transform="translate(8.125 1.648)" fill="#24292c"/>
      <path id="Union_2" data-name="Union 2" d="M64.134,27.036a1.259,1.259,0,0,1,1.187-1.28h6.2c1.047,0,1.281.224,1.836,1.19.643,1.19,2.523,2.3,5.735,2.3,3.446,0,4.548-1.154,4.548-2.211,0-1.512-1.792-2.434-6.115-3.9C71.846,21.255,64.357,18.5,64.357,11.115,64.357,4.269,70.191,0,78.365,0,86.714,0,92.548,4.367,93,10.793a1.27,1.27,0,0,1-1.2,1.28H85.433a1.494,1.494,0,0,1-1.566-1.235c-.547-1.521-2.289-2.891-5.326-2.891-3.114,0-4.359,1.235-4.359,2.425,0,1.423,1.654,2.166,5.925,3.633,4.958,1.745,13.408,4.681,13.408,12.529,0,6.981-6.068,10.65-14.233,10.65C71.151,37.185,64.778,33.605,64.134,27.036Zm-31.173-3.8V21.21a1.112,1.112,0,0,1,1.1-1.1h6.983a1.116,1.116,0,0,1,1.1,1.1V23.09c0,4.269,2.157,5.235,4.546,5.235,2.657,0,4.493-.967,4.493-5.235V1.79a1.125,1.125,0,0,1,1.1-1.1h6.934a1.125,1.125,0,0,1,1.1,1.1V23.233c0,9.594-6.2,13.952-13.631,13.952C39.522,37.185,32.962,32.827,32.962,23.233ZM1.1,36.5A1.113,1.113,0,0,1,0,35.4V1.79A1.119,1.119,0,0,1,1.1.689H17.811c7.714,0,11.617,4.179,11.617,9.871a8.1,8.1,0,0,1-3.581,7.07.457.457,0,0,0,.047.823A8.283,8.283,0,0,1,31.03,26.4c0,5.916-4.405,10.1-11.655,10.1Zm8.08-13.675v4.448a.927.927,0,0,0,.912.922h8.261c2.49,0,3.4-1.333,3.4-3.213,0-1.844-.912-3.079-3.4-3.079H10.094A.921.921,0,0,0,9.182,22.821Zm0-12.86v3.857a.921.921,0,0,0,.912.922h6.659c2.482,0,3.394-1.146,3.394-2.846a2.617,2.617,0,0,0-2.891-2.846H10.094A.919.919,0,0,0,9.182,9.961Z" transform="translate(0 52.18)" fill="#fb0" stroke="rgba(0,0,0,0)" stroke-miterlimit="10" stroke-width="1"/>
      <path id="Path_641" data-name="Path 641" d="M106.941,87.715a1.16,1.16,0,0,1-1.144-1.144V51.678a1.16,1.16,0,0,1,1.144-1.144h25.311a1.16,1.16,0,0,1,1.144,1.144v6.959a1.16,1.16,0,0,1-1.144,1.144H113.167c-.524,0-.489.43-.489.953l-.223,4.673c0,.524-.464.953.061.953h16.83a1.159,1.159,0,0,1,1.144,1.144v6.339a1.159,1.159,0,0,1-1.144,1.144H112.454c-.525,0-.178.43-.178.953l2.315,9.939c0,.62.167,1.836-.452,1.836Z" transform="translate(3.451 1.648)" fill="#24292c"/>
      <path id="Path_642" data-name="Path 642" d="M144.521,51.583a1.722,1.722,0,0,1,1.573-1.049h7.15a1.722,1.722,0,0,1,1.573,1.049l14.158,35.084a.767.767,0,0,1-.716,1.049h-8.1a1.656,1.656,0,0,1-1.524-1.049l-1.335-3.48a1.4,1.4,0,0,0-1.288-.906H143.281a1.4,1.4,0,0,0-1.287.906l-1.335,3.48a1.657,1.657,0,0,1-1.525,1.049h-8.1a.767.767,0,0,1-.716-1.049Zm8.245,22.071a.675.675,0,0,0,.621-.907L150,63.643a.348.348,0,0,0-.667,0l-3.432,9.1a.675.675,0,0,0,.621.907Z" transform="translate(4.249 1.648)" fill="#24292c"/>
      <path id="Path_643" data-name="Path 643" d="M180.429,86.571a1.16,1.16,0,0,1-1.144,1.144h-7.2a1.161,1.161,0,0,1-1.144-1.144V51.678a1.161,1.161,0,0,1,1.144-1.144h7.293a2.032,2.032,0,0,1,1.669,1l9.773,19.448a.464.464,0,0,0,.857,0l9.82-19.448a2.031,2.031,0,0,1,1.669-1h7.292a1.16,1.16,0,0,1,1.144,1.144V86.571a1.16,1.16,0,0,1-1.144,1.144h-7.2a1.16,1.16,0,0,1-1.143-1.144V69.6a.224.224,0,0,0-.43-.1L194.92,83.091a2.032,2.032,0,0,1-1.67,1h-3.956a2.027,2.027,0,0,1-1.668-1l-6.77-13.585a.223.223,0,0,0-.429.1Z" transform="translate(5.576 1.648)" fill="#24292c"/>
      <rect id="Rectangle_8575" data-name="Rectangle 8575" width="9.534" height="37.181" rx="1.108" transform="translate(222.907 52.182)" fill="#24292c"/>
      <path id="Path_644" data-name="Path 644" d="M231.784,87.715a1.16,1.16,0,0,1-1.144-1.144L235.3,68.4,230.64,51.678a1.16,1.16,0,0,1,1.144-1.144h7.2a1.161,1.161,0,0,1,1.144,1.144V77.562a.956.956,0,0,0,.953.954h15.73a1.159,1.159,0,0,1,1.144,1.144v6.911a1.16,1.16,0,0,1-1.144,1.144Z" transform="translate(7.523 1.648)" fill="#24292c"/>
      <path id="Path_667" data-name="Path 667" d="M174.719,9.5a62.661,62.661,0,0,1,41.236,15.385l6.756-6.756A72.347,72.347,0,0,0,107.588,45.6h6.122a6.746,6.746,0,0,0,5.95-3.483A62.506,62.506,0,0,1,174.719,9.5" transform="translate(3.51 0)" fill="#24292c" stroke="rgba(0,0,0,0)" stroke-miterlimit="10" stroke-width="1"/>
      <path id="Path_668" data-name="Path 668" d="M233.47,70.056a60.116,60.116,0,0,1-2.941,18.591h9.919A69.926,69.926,0,0,0,223.856,22l-6.736,6.736a60.472,60.472,0,0,1,16.35,41.322" transform="translate(7.081 0.718)" fill="#24292c" stroke="rgba(0,0,0,0)" stroke-miterlimit="10" stroke-width="1"/>
      <path id="Path_669" data-name="Path 669" d="M174.115,129.015a62.661,62.661,0,0,1-41.236-15.385l-6.756,6.756A72.347,72.347,0,0,0,241.246,92.912h-6.1a6.776,6.776,0,0,0-5.977,3.5,62.511,62.511,0,0,1-55.051,32.6" transform="translate(4.113 3.031)" fill="#24292c" stroke="rgba(0,0,0,0)" stroke-miterlimit="10" stroke-width="1"/>
      <path id="Path_670" data-name="Path 670" d="M112.543,69.125a60.113,60.113,0,0,1,2.941-18.591h-9.919a69.926,69.926,0,0,0,16.593,66.649l6.736-6.736a60.472,60.472,0,0,1-16.35-41.322" transform="translate(3.36 1.648)" fill="#24292c" stroke="rgba(0,0,0,0)" stroke-miterlimit="10" stroke-width="1"/>
    </g>
  </g>
</svg>
