<svg xmlns="http://www.w3.org/2000/svg" width="97.62" height="25" viewBox="0 0 97.62 25"><g transform="translate(9.543 2)"><path d="M97.567-.093V3.942H84.823v6.548H95.728v3.9H84.823v6.548H97.567v3.968H81.012v-25Zm-32.912,0a12.324,12.324,0,0,1,12.219,12.5,12.283,12.283,0,0,1-12.219,12.5H56.378v-25Zm-22.73,0,10.314,25H48.1l-1.708-4.3H34.962l-1.708,4.3h-4.2l10.38-25Zm-38.89,0,9.394,10.78,9.46-10.78h3.022v25H21.1V6.918l-8.672,9.788L3.823,6.918V24.907H-.053v-25ZM64.786,3.942h-4.6V20.873h4.6A8.33,8.33,0,0,0,73,12.407a8.372,8.372,0,0,0-8.212-8.466ZM40.677,6.984,36.735,16.64h7.817Z" transform="translate(-9.49 -1.907)" fill="#131413" fill-rule="evenodd"/></g></svg>